<svg width="1200" height="600" xmlns="http://www.w3.org/2000/svg">
  <defs>
    <linearGradient id="grad1" x1="0%" y1="0%" x2="100%" y2="100%">
      <stop offset="0%" style="stop-color:#ea580c;stop-opacity:1" />
      <stop offset="100%" style="stop-color:#c2410c;stop-opacity:1" />
    </linearGradient>
    <linearGradient id="overlay" x1="0%" y1="0%" x2="0%" y2="100%">
      <stop offset="0%" style="stop-color:rgba(0,0,0,0.3);stop-opacity:1" />
      <stop offset="100%" style="stop-color:rgba(0,0,0,0.7);stop-opacity:1" />
    </linearGradient>
  </defs>
  <rect width="1200" height="600" fill="url(#grad1)"/>
  <rect width="1200" height="600" fill="url(#overlay)"/>
  
  <!-- Background Pattern -->
  <g opacity="0.1">
    <circle cx="200" cy="150" r="100" fill="white"/>
    <circle cx="1000" cy="450" r="80" fill="white"/>
    <circle cx="300" cy="500" r="60" fill="white"/>
    <circle cx="900" cy="100" r="70" fill="white"/>
  </g>
  
  <!-- Main Icon -->
  <g transform="translate(600, 200)">
    <circle cx="0" cy="0" r="80" fill="white" opacity="0.9"/>
    <g transform="translate(-40, -40)">
      <circle cx="0" cy="0" r="30" fill="#ea580c"/>
      <path d="M-20 -20 L20 -20 L20 20 L-20 20 Z" fill="none" stroke="#ea580c" stroke-width="3"/>
      <circle cx="0" cy="0" r="15" fill="white"/>
      <path d="M-8 -8 L8 8 M8 -8 L-8 8" stroke="#ea580c" stroke-width="2" stroke-linecap="round"/>
      <circle cx="-30" cy="-30" r="4" fill="white" opacity="0.6"/>
      <circle cx="30" cy="-30" r="4" fill="white" opacity="0.6"/>
      <circle cx="-30" cy="30" r="4" fill="white" opacity="0.6"/>
      <circle cx="30" cy="30" r="4" fill="white" opacity="0.6"/>
    </g>
  </g>
  
  <!-- Title -->
  <text x="600" y="350" text-anchor="middle" fill="white" font-family="Arial, sans-serif" font-size="36" font-weight="bold">
    Public Consultation
  </text>
  
  <!-- Subtitle -->
  <text x="600" y="390" text-anchor="middle" fill="white" font-family="Arial, sans-serif" font-size="18" opacity="0.9">
    Share Your Views on Electoral Reforms
  </text>
  
  <!-- Decorative Elements -->
  <g opacity="0.6">
    <path d="M100 100 L150 100 L125 150 Z" fill="white"/>
    <path d="M1050 500 L1100 500 L1075 550 Z" fill="white"/>
    <circle cx="150" cy="500" r="5" fill="white"/>
    <circle cx="1050" cy="100" r="5" fill="white"/>
  </g>
</svg>
