<svg width="1200" height="600" xmlns="http://www.w3.org/2000/svg">
  <defs>
    <linearGradient id="grad1" x1="0%" y1="0%" x2="100%" y2="100%">
      <stop offset="0%" style="stop-color:#059669;stop-opacity:1" />
      <stop offset="100%" style="stop-color:#047857;stop-opacity:1" />
    </linearGradient>
    <linearGradient id="overlay" x1="0%" y1="0%" x2="0%" y2="100%">
      <stop offset="0%" style="stop-color:rgba(0,0,0,0.3);stop-opacity:1" />
      <stop offset="100%" style="stop-color:rgba(0,0,0,0.7);stop-opacity:1" />
    </linearGradient>
  </defs>
  <rect width="1200" height="600" fill="url(#grad1)"/>
  <rect width="1200" height="600" fill="url(#overlay)"/>
  
  <!-- Background Pattern -->
  <g opacity="0.1">
    <rect x="100" y="100" width="200" height="200" fill="white" rx="20"/>
    <rect x="900" y="300" width="150" height="150" fill="white" rx="15"/>
    <circle cx="300" cy="400" r="80" fill="white"/>
    <circle cx="800" cy="150" r="60" fill="white"/>
  </g>
  
  <!-- Main Icon -->
  <g transform="translate(600, 200)">
    <circle cx="0" cy="0" r="80" fill="white" opacity="0.9"/>
    <g transform="translate(-40, -40)">
      <rect x="-30" y="-20" width="60" height="40" fill="#059669" opacity="0.1"/>
      <rect x="-25" y="-15" width="50" height="30" fill="#059669" opacity="0.2"/>
      <circle cx="-20" cy="-10" r="6" fill="#059669"/>
      <circle cx="0" cy="-10" r="6" fill="#059669"/>
      <circle cx="20" cy="-10" r="6" fill="#059669"/>
      <rect x="-20" y="5" width="40" height="10" fill="#059669" opacity="0.3"/>
      <rect x="-15" y="8" width="30" height="4" fill="#059669"/>
      <path d="M-40 -20 L-50 -30 M40 -20 L50 -30 M-40 20 L-50 30 M40 20 L50 30" stroke="white" stroke-width="2" opacity="0.6"/>
    </g>
  </g>
  
  <!-- Title -->
  <text x="600" y="350" text-anchor="middle" fill="white" font-family="Arial, sans-serif" font-size="36" font-weight="bold">
    Technology Innovation
  </text>
  
  <!-- Subtitle -->
  <text x="600" y="390" text-anchor="middle" fill="white" font-family="Arial, sans-serif" font-size="18" opacity="0.9">
    Advancing Electoral Systems with Modern Technology
  </text>
  
  <!-- Decorative Elements -->
  <g opacity="0.6">
    <rect x="100" y="100" width="20" height="20" fill="white" rx="3"/>
    <rect x="1080" y="480" width="20" height="20" fill="white" rx="3"/>
    <circle cx="150" cy="500" r="8" fill="white"/>
    <circle cx="1050" cy="100" r="8" fill="white"/>
  </g>
</svg>
