<?xml version="1.0" encoding="UTF-8"?>
<svg id="Layer_1" xmlns="http://www.w3.org/2000/svg" version="1.1" viewBox="0 0 690 202.3">
  <!-- Generator: Adobe Illustrator 29.3.1, SVG Export Plug-In . SVG Version: 2.1.0 Build 151)  -->
  <defs>
    <style>
      .st0 {
        fill: #fff;
      }
    </style>
  </defs>
  <path class="st0" d="M0,202.3V0h203.19v10.74h-88.17L14.32,194.24h93.09l64.45-115.47h-56.84l-46.54,84.15c-2.66,2.54-6.63-2.13-9.28-2.83l50.45-92.06h93.54v134.27H0Z"/>
  <path class="st0" d="M320.52,85.7v-2.62c0-3.67-.78-7.03-2.31-10-1.51-2.91-3.8-5.26-6.84-6.98-3.05-1.71-6.99-2.59-11.68-2.59-6.98,0-12.51,2.15-16.45,6.38-3.97,4.26-5.98,10.19-5.98,17.62v27.25c0,7.33,2.01,13.29,5.99,17.72,3.94,4.37,9.57,6.6,16.74,6.6s12.41-1.86,15.62-5.56c2.2-2.52,3.66-5.55,4.37-9h-25.78v-20.44h49.6v53.86h-22.02v-10.62h-.63c-.78,1.67-1.93,3.41-3.39,5.21-1.78,2.17-4.44,4.01-7.89,5.46-3.44,1.43-8.15,2.16-13.99,2.16-7.8,0-14.98-1.78-21.33-5.32-6.38-3.53-11.51-8.78-15.26-15.58-3.74-6.76-5.64-15.11-5.64-24.81v-26.62c0-14.57,4.2-25.96,12.45-33.85,8.26-7.87,19.55-11.86,33.58-11.86s24.87,3.78,32.54,11.24c7.69,7.46,11.58,17.67,11.58,30.36v1.98h-23.29Z"/>
  <path class="st0" d="M442.04,116.35c0-8.2-1.65-15.53-4.91-21.78-3.27-6.26-7.91-11.24-13.8-14.79-5.9-3.55-12.9-5.34-20.82-5.34s-15.17,1.74-21.26,5.17c-6.11,3.43-10.93,8.35-14.3,14.63-3.37,6.25-5.07,13.69-5.07,22.11v1.9c0,8.43,1.73,15.88,5.15,22.11,3.43,6.27,8.3,11.2,14.46,14.64,6.14,3.43,13.32,5.15,21.34,5.15,3.31,0,6.37-.24,9.19-.73,3.44-.58,6.5-1.51,9.15-2.81,4.79-2.35,8.69-5.22,11.59-8.57.39-.45.82-.96,1.25-1.51.12-.15.24-.3.35-.45,1.77-2.28,3.56-4.86,3.56-4.86l.05.03c1.4-2.44,2.71-5.22,3.89-8.37l-3.94-.04-18.97-.81c-1.11,1.67-2.46,3.24-4.05,4.7-2.37,2.19-6.22,3.29-11.45,3.29s-9.51-1.59-13.05-4.74c-3.21-2.86-5.01-6.4-5.46-10.79h57.1v-8.16ZM385.31,106.92c.84-3.48,2.55-6.35,5.09-8.55,2.91-2.52,6.93-3.79,11.95-3.79s8.77,1.27,11.72,3.79c2.62,2.23,4.2,5.05,4.8,8.55h-33.57Z"/>
  <path class="st0" d="M437.98,141.27s-1.82,2.55-3.62,4.83c1.77-2.28,3.56-4.86,3.56-4.86l.05.03Z"/>
  <path class="st0" d="M539.81,109.7v48.25h-22.67v-46.67c0-5.52-1.34-9.67-3.97-12.36-2.63-2.67-6.49-4.03-11.48-4.03-5.76,0-10.08,1.83-13.22,5.61-3.16,3.8-4.75,9.24-4.75,16.18v41.27h-22.67v-81.29h22.34v10.31h.67c1.43-2.67,3.85-5.22,7.18-7.6,3.71-2.64,9.3-3.98,16.62-3.98,6.35,0,11.99,1.48,16.78,4.4,4.79,2.91,8.55,6.99,11.2,12.1,2.62,5.09,3.95,11.08,3.95,17.81Z"/>
  <path class="st0" d="M622.62,45.35l-.26-1h-38.52l-29.87,113.6h24.35l6.03-24.41,2.28-9.01h32.93l2.28,9.01,6.02,24.41h24.35l-29.6-112.6ZM592.18,102.51l10.55-42.32h.74l10.55,42.32h-21.84Z"/>
  <rect class="st0" x="666.39" y="44.35" width="23.61" height="113.6"/>
  <path class="st0" d="M437.98,141.27s-1.82,2.55-3.62,4.83c1.77-2.28,3.56-4.86,3.56-4.86l.05.03Z"/>
</svg>